<svg id="Layer_1" data-name="Layer 1" xmlns="http://www.w3.org/2000/svg" viewBox="0 0 1982.12 415.2"><defs><style>.cls-1{fill:#231f20;}.cls-2{fill:#006838;}.cls-3{fill:#2e3192;}.cls-4{fill:#be1e2d;}.cls-5{fill:none;stroke:#2e3192;stroke-miterlimit:10;stroke-width:3px;}</style></defs><title>sql injection</title><path class="cls-1" d="M12.8,168.86c1.8-6.56,5.16-15,7.34-18.59l4.37-.47a109.66,109.66,0,0,0-4.61,18.28Zm11.64,0a91.36,91.36,0,0,1,7.26-18.59l4.37-.47a109.61,109.61,0,0,0-4.61,18.28Z" transform="translate(-12.8 -52.83)"/><path class="cls-2" d="M42.79,195A24.08,24.08,0,0,0,55,198.46c7,0,11-3.67,11-9,0-4.92-2.81-7.73-9.92-10.47-8.59-3-13.9-7.5-13.9-14.92,0-8.2,6.8-14.29,17-14.29a23.92,23.92,0,0,1,11.64,2.58L69,157.92a21,21,0,0,0-10-2.5c-7.19,0-9.92,4.3-9.92,7.89,0,4.92,3.2,7.34,10.47,10.15,8.9,3.44,13.44,7.73,13.44,15.47,0,8.12-6,15.15-18.43,15.15-5.08,0-10.62-1.48-13.43-3.36Z" transform="translate(-12.8 -52.83)"/><path class="cls-2" d="M109.5,178.62H89v19h22.81v5.7H82.24V150.66h28.43v5.7H89V173H109.5v5.62Z" transform="translate(-12.8 -52.83)"/><path class="cls-2" d="M120.67,150.66h6.8V197.6H150v5.7H120.67V150.66Z" transform="translate(-12.8 -52.83)"/><path class="cls-2" d="M184.79,178.62H164.33v19h22.81v5.7h-29.6V150.66H186v5.7H164.33V173h20.46v5.62Z" transform="translate(-12.8 -52.83)"/><path class="cls-2" d="M232.75,201.59c-2.5,1.25-7.5,2.5-13.9,2.5-14.84,0-26-9.37-26-26.64,0-16.48,11.17-27.65,27.49-27.65,6.56,0,10.7,1.41,12.5,2.34l-1.64,5.55a24.76,24.76,0,0,0-10.62-2.19c-12.34,0-20.54,7.89-20.54,21.71,0,12.89,7.42,21.17,20.23,21.17a27.2,27.2,0,0,0,11.09-2.19Z" transform="translate(-12.8 -52.83)"/><path class="cls-2" d="M253.45,156.44h-16v-5.78h39v5.78H260.33V203.3h-6.87V156.44Z" transform="translate(-12.8 -52.83)"/><path class="cls-2" d="M318.6,152.45l-7.42,9.76v0.16L323,160.81v5.31l-11.79-1.41v0.16l7.5,9.37-4.92,2.81-4.69-10.94h-0.16l-5.08,11-4.45-2.81,7.42-9.53v-0.16l-11.56,1.48v-5.31l11.48,1.48v-0.16l-7.34-9.53,4.76-2.73L309,160.73h0.16l4.77-10.94Z" transform="translate(-12.8 -52.83)"/><path class="cls-2" d="M347.81,150.66h28.35v5.7H354.6v17.5h19.92v5.62H354.6V203.3h-6.8V150.66Z" transform="translate(-12.8 -52.83)"/><path class="cls-2" d="M385.85,151.36a70.76,70.76,0,0,1,13-1.09c7.26,0,12,1.33,15.23,4.3a13.11,13.11,0,0,1,4.14,10c0,7-4.37,11.56-9.92,13.43v0.23c4.06,1.41,6.48,5.16,7.73,10.62,1.72,7.34,3,12.42,4.06,14.45h-7c-0.86-1.48-2-6-3.52-12.58-1.56-7.26-4.37-10-10.54-10.23h-6.4V203.3h-6.8V151.36Zm6.8,24h7c7.26,0,11.87-4,11.87-10,0-6.8-4.92-9.76-12.11-9.84a28,28,0,0,0-6.72.63v19.21Z" transform="translate(-12.8 -52.83)"/><path class="cls-2" d="M473.1,176.43c0,18.12-11,27.73-24.45,27.73-13.9,0-23.67-10.78-23.67-26.71,0-16.72,10.39-27.65,24.45-27.65C463.8,149.8,473.1,160.81,473.1,176.43Zm-40.85.86c0,11.25,6.09,21.32,16.79,21.32s16.87-9.92,16.87-21.87c0-10.47-5.47-21.4-16.79-21.4S432.25,165.73,432.25,177.29Z" transform="translate(-12.8 -52.83)"/><path class="cls-2" d="M526.29,180.18c-0.39-7.34-.86-16.17-0.78-22.73h-0.23c-1.8,6.17-4,12.73-6.64,20L509.34,203h-5.16l-8.51-25.07c-2.5-7.42-4.61-14.22-6.09-20.46h-0.16c-0.16,6.56-.55,15.39-1,23.28L487,203.3h-6.48l3.67-52.65h8.67l9,25.46c2.19,6.48,4,12.26,5.31,17.73h0.23c1.33-5.31,3.2-11.09,5.55-17.73l9.37-25.46H531l3.28,52.65h-6.64Z" transform="translate(-12.8 -52.83)"/><path class="cls-2" d="M588,201.9a25.32,25.32,0,0,1-10.86,2.19c-11.4,0-18.82-7.73-18.82-19.29s8-20.07,20.31-20.07a23,23,0,0,1,9.53,2L586.59,172a15.94,15.94,0,0,0-8-1.8c-8.67,0-13.36,6.41-13.36,14.29,0,8.75,5.62,14.14,13.12,14.14a19.53,19.53,0,0,0,8.44-1.87Z" transform="translate(-12.8 -52.83)"/><path class="cls-2" d="M617,203.3l-0.55-4.76H616.2a14.08,14.08,0,0,1-11.56,5.62c-7.65,0-11.56-5.39-11.56-10.86,0-9.14,8.12-14.14,22.73-14.06v-0.78c0-3.12-.86-8.75-8.59-8.75a18.84,18.84,0,0,0-9.84,2.81L595.81,168a23.46,23.46,0,0,1,12.42-3.36c11.56,0,14.37,7.89,14.37,15.47v14.14a53.22,53.22,0,0,0,.63,9.06H617ZM616,184c-7.5-.16-16,1.17-16,8.51,0,4.45,3,6.56,6.48,6.56a9.41,9.41,0,0,0,9.14-6.33,7.17,7.17,0,0,0,.39-2.19V184Z" transform="translate(-12.8 -52.83)"/><path class="cls-2" d="M641.66,154.64V165.5h9.84v5.23h-9.84v20.39c0,4.69,1.33,7.34,5.16,7.34a15.29,15.29,0,0,0,4-.47l0.31,5.16a16.83,16.83,0,0,1-6.09.94c-3.2,0-5.78-1-7.42-2.89-2-2-2.66-5.39-2.66-9.84V170.73h-5.86V165.5h5.86v-9.06Z" transform="translate(-12.8 -52.83)"/><path class="cls-2" d="M658.3,196.27a18,18,0,0,0,9.06,2.73c5,0,7.34-2.5,7.34-5.62,0-3.28-2-5.08-7-7-6.8-2.42-10-6.17-10-10.7,0-6.09,4.92-11.09,13-11.09A18.86,18.86,0,0,1,680,167l-1.72,5a14.71,14.71,0,0,0-7.73-2.19c-4.06,0-6.33,2.34-6.33,5.16,0,3.12,2.27,4.53,7.19,6.41,6.56,2.5,9.92,5.78,9.92,11.4,0,6.64-5.16,11.33-14.14,11.33a21.56,21.56,0,0,1-10.62-2.58Z" transform="translate(-12.8 -52.83)"/><path class="cls-2" d="M712.74,203.3l-13.36-52.65h7.19l6.25,26.64c1.56,6.56,3,13.12,3.91,18.2h0.16c0.86-5.23,2.5-11.48,4.3-18.28l7-26.56h7.11l6.41,26.71c1.48,6.25,2.89,12.5,3.67,18h0.16c1.09-5.78,2.58-11.64,4.22-18.2l7-26.56h7L748.75,203.3h-7.11L735,175.89a158.46,158.46,0,0,1-3.44-17.18h-0.16a164.42,164.42,0,0,1-4.06,17.18l-7.5,27.42h-7.11Z" transform="translate(-12.8 -52.83)"/><path class="cls-2" d="M777,150.66v22h25.46v-22h6.87V203.3h-6.87V178.62H777V203.3h-6.8V150.66H777Z" transform="translate(-12.8 -52.83)"/><path class="cls-2" d="M848.42,178.62H828v19h22.81v5.7h-29.6V150.66h28.43v5.7H828V173h20.46v5.62Z" transform="translate(-12.8 -52.83)"/><path class="cls-2" d="M859.59,151.36a70.76,70.76,0,0,1,13-1.09c7.26,0,12,1.33,15.23,4.3a13.11,13.11,0,0,1,4.14,10c0,7-4.37,11.56-9.92,13.43v0.23c4.06,1.41,6.48,5.16,7.73,10.62,1.72,7.34,3,12.42,4.06,14.45h-7c-0.86-1.48-2-6-3.52-12.58-1.56-7.26-4.37-10-10.54-10.23h-6.4V203.3h-6.8V151.36Zm6.8,24h7c7.26,0,11.87-4,11.87-10,0-6.8-4.92-9.76-12.11-9.84a28,28,0,0,0-6.72.63v19.21Z" transform="translate(-12.8 -52.83)"/><path class="cls-2" d="M928.87,178.62H908.41v19h22.81v5.7h-29.6V150.66H930v5.7H908.41V173h20.46v5.62Z" transform="translate(-12.8 -52.83)"/><path class="cls-2" d="M956.37,175.73c0-3.91-.08-7.11-0.31-10.23h6.09l0.39,6.25h0.16a13.9,13.9,0,0,1,12.5-7.11c5.23,0,13.36,3.12,13.36,16.09V203.3h-6.87V181.51c0-6.09-2.27-11.17-8.75-11.17a9.77,9.77,0,0,0-9.22,7,9.88,9.88,0,0,0-.47,3.2V203.3h-6.87V175.73Z" transform="translate(-12.8 -52.83)"/><path class="cls-2" d="M1020.65,203.3l-0.55-4.76h-0.23a14.08,14.08,0,0,1-11.56,5.62c-7.65,0-11.56-5.39-11.56-10.86,0-9.14,8.12-14.14,22.73-14.06v-0.78c0-3.12-.86-8.75-8.59-8.75a18.84,18.84,0,0,0-9.84,2.81L999.48,168a23.46,23.46,0,0,1,12.42-3.36c11.56,0,14.37,7.89,14.37,15.47v14.14a53.22,53.22,0,0,0,.63,9.06h-6.25Zm-1-19.29c-7.5-.16-16,1.17-16,8.51,0,4.45,3,6.56,6.48,6.56a9.41,9.41,0,0,0,9.14-6.33,7.17,7.17,0,0,0,.39-2.19V184Z" transform="translate(-12.8 -52.83)"/><path class="cls-2" d="M1037.37,175.73c0-3.91-.08-7.11-0.31-10.23h6l0.31,6.09h0.23a13,13,0,0,1,11.87-7,11.18,11.18,0,0,1,10.7,7.58h0.16a15.59,15.59,0,0,1,4.22-4.92,12.9,12.9,0,0,1,8.36-2.66c5,0,12.42,3.28,12.42,16.4V203.3h-6.72V181.9c0-7.26-2.66-11.64-8.2-11.64-3.91,0-7,2.89-8.12,6.25a11.32,11.32,0,0,0-.55,3.44V203.3H1061V180.65c0-6-2.66-10.39-7.89-10.39-4.3,0-7.42,3.44-8.51,6.87a9.48,9.48,0,0,0-.55,3.36V203.3h-6.72V175.73Z" transform="translate(-12.8 -52.83)"/><path class="cls-2" d="M1106.34,185.65c0.16,9.29,6.09,13.12,13,13.12a24.85,24.85,0,0,0,10.47-2l1.17,4.92a30.62,30.62,0,0,1-12.58,2.34c-11.64,0-18.59-7.65-18.59-19.06s6.72-20.39,17.73-20.39c12.34,0,15.62,10.86,15.62,17.81a25.92,25.92,0,0,1-.23,3.2h-26.56Zm20.15-4.92c0.08-4.37-1.8-11.17-9.53-11.17-7,0-10,6.4-10.54,11.17h20.07Z" transform="translate(-12.8 -52.83)"/><path class="cls-2" d="M1158.44,150.66h6.79V197.6h22.5v5.7h-29.29V150.66Z" transform="translate(-12.8 -52.83)"/><path class="cls-2" d="M1202.1,150.66V203.3h-6.79V150.66h6.79Z" transform="translate(-12.8 -52.83)"/><path class="cls-2" d="M1214,150.66h6.79V176H1221c1.41-2,2.81-3.91,4.14-5.62l16.09-19.76h8.44L1230.61,173l20.54,30.31h-8l-17.34-25.85-5,5.78V203.3H1214V150.66Z" transform="translate(-12.8 -52.83)"/><path class="cls-2" d="M1283.57,178.62H1263.1v19h22.81v5.7h-29.6V150.66h28.43v5.7H1263.1V173h20.46v5.62Z" transform="translate(-12.8 -52.83)"/><path class="cls-2" d="M1316.14,149.8l-1.33,18.75h-4.22l-1.25-18.75h6.8Z" transform="translate(-12.8 -52.83)"/><path class="cls-2" d="M1346.45,166.83c0,10.7-5.62,16-12.19,16-6.33,0-11.79-5.08-11.87-15.31s5.54-15.86,12.26-15.86C1341.76,151.67,1346.45,157.14,1346.45,166.83Zm-18.59.47c-0.16,6.48,2.27,11.4,6.56,11.4,4.53,0,6.56-4.84,6.56-11.56,0-6.17-1.8-11.33-6.56-11.33C1330.12,155.81,1327.86,160.89,1327.86,167.3Zm5.94,36.87,29.84-52.49H1368l-29.84,52.49h-4.37Zm45.69-16.33c0,10.7-5.62,16-12.11,16-6.33,0-11.79-5.08-11.87-15.23s5.55-15.93,12.26-15.93C1374.88,172.69,1379.49,178.15,1379.49,187.84Zm-18.59.47c-0.08,6.48,2.42,11.4,6.64,11.4,4.53,0,6.56-4.84,6.56-11.56,0-6.17-1.8-11.33-6.56-11.33C1363.24,176.83,1360.9,181.9,1360.9,188.31Z" transform="translate(-12.8 -52.83)"/><path class="cls-1" d="M1396.2,149.8c-1.8,6.56-5.16,14.92-7.26,18.51l-4.37.55a118.86,118.86,0,0,0,4.61-18.36Zm11.56,0c-1.8,6.56-5.16,14.92-7.26,18.51l-4.37.55a110.56,110.56,0,0,0,4.61-18.36Z" transform="translate(-12.8 -52.83)"/><path class="cls-1" d="M1445.18,161.75v18.36h17.65v4.69h-17.65V203.3h-5V184.79h-17.65v-4.69h17.65V161.75h5Z" transform="translate(-12.8 -52.83)"/><path class="cls-3" d="M1515.16,201.9a25.32,25.32,0,0,1-10.86,2.19c-11.4,0-18.83-7.73-18.83-19.29s8-20.07,20.31-20.07a23,23,0,0,1,9.53,2l-1.56,5.31a15.94,15.94,0,0,0-8-1.8c-8.67,0-13.36,6.41-13.36,14.29,0,8.75,5.62,14.14,13.12,14.14a19.53,19.53,0,0,0,8.44-1.87Z" transform="translate(-12.8 -52.83)"/><path class="cls-3" d="M1544.14,203.3l-0.55-4.76h-0.23a14.08,14.08,0,0,1-11.56,5.62c-7.65,0-11.56-5.39-11.56-10.86,0-9.14,8.12-14.14,22.73-14.06v-0.78c0-3.12-.86-8.75-8.59-8.75a18.83,18.83,0,0,0-9.84,2.81L1523,168a23.46,23.46,0,0,1,12.42-3.36c11.56,0,14.37,7.89,14.37,15.47v14.14a53.33,53.33,0,0,0,.62,9.06h-6.25Zm-1-19.29c-7.5-.16-16,1.17-16,8.51,0,4.45,3,6.56,6.48,6.56a9.41,9.41,0,0,0,9.14-6.33,7.17,7.17,0,0,0,.39-2.19V184Z" transform="translate(-12.8 -52.83)"/><path class="cls-3" d="M1568.83,154.64V165.5h9.84v5.23h-9.84v20.39c0,4.69,1.33,7.34,5.16,7.34a15.28,15.28,0,0,0,4-.47l0.31,5.16a16.82,16.82,0,0,1-6.09.94c-3.2,0-5.78-1-7.42-2.89-2-2-2.66-5.39-2.66-9.84V170.73h-5.86V165.5h5.86v-9.06Z" transform="translate(-12.8 -52.83)"/><path class="cls-3" d="M1586.64,203.3V150.66h7.42l16.87,26.64a149,149,0,0,1,9.45,17.11l0.16-.08c-0.62-7-.78-13.44-0.78-21.64v-22h6.41V203.3h-6.87l-16.71-26.71a166.94,166.94,0,0,1-9.84-17.57l-0.23.08c0.39,6.64.55,13,.55,21.71v22.5h-6.41Z" transform="translate(-12.8 -52.83)"/><path class="cls-3" d="M1658.73,203.3l-0.55-4.76H1658a14.08,14.08,0,0,1-11.56,5.62c-7.65,0-11.56-5.39-11.56-10.86,0-9.14,8.12-14.14,22.73-14.06v-0.78c0-3.12-.86-8.75-8.59-8.75a18.83,18.83,0,0,0-9.84,2.81l-1.56-4.53a23.46,23.46,0,0,1,12.42-3.36c11.56,0,14.37,7.89,14.37,15.47v14.14a53.33,53.33,0,0,0,.62,9.06h-6.25Zm-1-19.29c-7.5-.16-16,1.17-16,8.51,0,4.45,3,6.56,6.48,6.56a9.41,9.41,0,0,0,9.14-6.33,7.17,7.17,0,0,0,.39-2.19V184Z" transform="translate(-12.8 -52.83)"/><path class="cls-3" d="M1675.45,175.73c0-3.91-.08-7.11-0.31-10.23h6l0.31,6.09h0.23a13,13,0,0,1,11.87-7,11.18,11.18,0,0,1,10.7,7.58h0.16a15.59,15.59,0,0,1,4.22-4.92,12.9,12.9,0,0,1,8.36-2.66c5,0,12.42,3.28,12.42,16.4V203.3h-6.72V181.9c0-7.26-2.66-11.64-8.2-11.64-3.91,0-7,2.89-8.12,6.25a11.32,11.32,0,0,0-.55,3.44V203.3h-6.72V180.65c0-6-2.66-10.39-7.89-10.39-4.3,0-7.42,3.44-8.51,6.87a9.48,9.48,0,0,0-.55,3.36V203.3h-6.72V175.73Z" transform="translate(-12.8 -52.83)"/><path class="cls-3" d="M1744.42,185.65c0.16,9.29,6.09,13.12,13,13.12a24.86,24.86,0,0,0,10.47-2l1.17,4.92a30.62,30.62,0,0,1-12.58,2.34c-11.64,0-18.59-7.65-18.59-19.06s6.72-20.39,17.73-20.39c12.34,0,15.62,10.86,15.62,17.81a25.92,25.92,0,0,1-.23,3.2h-26.56Zm20.15-4.92c0.08-4.37-1.8-11.17-9.53-11.17-7,0-10,6.4-10.54,11.17h20.07Z" transform="translate(-12.8 -52.83)"/><path class="cls-1" d="M1816.36,161.75v18.36H1834v4.69h-17.65V203.3h-5V184.79h-17.65v-4.69h17.65V161.75h5Z" transform="translate(-12.8 -52.83)"/><path class="cls-1" d="M1849.87,168.86c1.8-6.56,5.16-15,7.34-18.59l4.37-.47a109.62,109.62,0,0,0-4.61,18.28Zm11.64,0a91.33,91.33,0,0,1,7.26-18.59l4.37-.47a109.62,109.62,0,0,0-4.61,18.28Z" transform="translate(-12.8 -52.83)"/><path class="cls-2" d="M1901.26,166.83c0,10.7-5.62,16-12.19,16-6.33,0-11.79-5.08-11.87-15.31s5.54-15.86,12.26-15.86C1896.58,151.67,1901.26,157.14,1901.26,166.83Zm-18.59.47c-0.16,6.48,2.27,11.4,6.56,11.4,4.53,0,6.56-4.84,6.56-11.56,0-6.17-1.8-11.33-6.56-11.33C1884.94,155.81,1882.67,160.89,1882.67,167.3Zm5.94,36.87,29.84-52.49h4.37L1893,204.16h-4.37Zm45.69-16.33c0,10.7-5.62,16-12.11,16-6.33,0-11.79-5.08-11.87-15.23s5.55-15.93,12.26-15.93C1929.7,172.69,1934.3,178.15,1934.3,187.84Zm-18.59.47c-0.08,6.48,2.42,11.4,6.64,11.4,4.53,0,6.56-4.84,6.56-11.56,0-6.17-1.8-11.33-6.56-11.33C1918.06,176.83,1915.71,181.9,1915.71,188.31Z" transform="translate(-12.8 -52.83)"/><path class="cls-2" d="M1951.1,149.8c-1.8,6.56-5.16,14.92-7.34,18.51l-4.37.55A110.56,110.56,0,0,0,1944,150.5Z" transform="translate(-12.8 -52.83)"/><path class="cls-2" d="M1954.22,212.91a112.47,112.47,0,0,0,4.69-18.67l7.58-.78c-1.87,6.64-5.31,15.31-7.5,19Zm3.36-41.16a4.6,4.6,0,0,1,4.61-4.92c2.81,0,4.61,2,4.61,4.92A4.61,4.61,0,1,1,1957.58,171.75Z" transform="translate(-12.8 -52.83)"/><path class="cls-1" d="M1983.36,149.8c-1.8,6.56-5.16,14.92-7.26,18.51l-4.37.55a118.86,118.86,0,0,0,4.61-18.36Zm11.56,0c-1.8,6.56-5.16,14.92-7.26,18.51l-4.37.55a110.56,110.56,0,0,0,4.61-18.36Z" transform="translate(-12.8 -52.83)"/><path class="cls-2" d="M403,72.92H388v-4.6q0-3.22-.57-4.1a2.12,2.12,0,0,0-1.92-.88,2.44,2.44,0,0,0-2.2,1.19,6.9,6.9,0,0,0-.75,3.61,10.22,10.22,0,0,0,.84,4.68q0.8,1.57,4.56,3.8,10.78,6.4,13.58,10.5t2.8,13.23q0,6.63-1.55,9.78t-6,5.27a23.74,23.74,0,0,1-10.35,2.13,23.15,23.15,0,0,1-11.06-2.45,12,12,0,0,1-6-6.25Q368,105,368,98V94h15v7.55q0,3.49.63,4.49a2.45,2.45,0,0,0,2.24,1,2.63,2.63,0,0,0,2.4-1.27A7.22,7.22,0,0,0,389,102q0-5.48-1.5-7.17T380,89.18a74.18,74.18,0,0,1-8-5.79,13.54,13.54,0,0,1-3.24-5,21.92,21.92,0,0,1-1.28-8.13q0-7.13,1.82-10.43a12.26,12.26,0,0,1,5.89-5.16A23.48,23.48,0,0,1,385,52.83a25.57,25.57,0,0,1,10.72,2q4.43,2,5.87,5.12T403,70.47v2.45Z" transform="translate(-12.8 -52.83)"/><path class="cls-2" d="M409.44,54.13h26.92V66.56H425.59V78.33h10.08V90.14H425.59v13.65h11.85v12.42h-28V54.13Z" transform="translate(-12.8 -52.83)"/><path class="cls-2" d="M442.08,54.13H453.5q11.43,0,15.47.88a10.65,10.65,0,0,1,6.6,4.51q2.55,3.62,2.55,11.56,0,7.25-1.8,9.74t-7.09,3Q474,85,475.66,87a9.52,9.52,0,0,1,2.05,3.66,57.81,57.81,0,0,1,.4,9.18v16.37h-15V95.58q0-5-.79-6.17t-4.12-1.19v28H442.08V54.13Zm16.14,10.62v13.8a7.1,7.1,0,0,0,3.82-.75q1.09-.75,1.09-4.85V69.55q0-3-1.05-3.87T458.22,64.76Z" transform="translate(-12.8 -52.83)"/><path class="cls-2" d="M522.75,54.13l-8.22,62.08H490l-9.33-62.08h17q3,25.65,4.24,43.41,1.25-17.94,2.66-31.86l1.12-11.54h17Z" transform="translate(-12.8 -52.83)"/><path class="cls-2" d="M525.47,54.13h26.92V66.56H541.62V78.33H551.7V90.14H541.62v13.65h11.85v12.42h-28V54.13Z" transform="translate(-12.8 -52.83)"/><path class="cls-2" d="M558.1,54.13h11.43Q581,54.13,585,55a10.65,10.65,0,0,1,6.6,4.51q2.55,3.62,2.55,11.56,0,7.25-1.8,9.74t-7.09,3Q590,85,591.69,87a9.52,9.52,0,0,1,2.05,3.66,57.81,57.81,0,0,1,.4,9.18v16.37h-15V95.58q0-5-.79-6.17t-4.12-1.19v28H558.1V54.13Zm16.14,10.62v13.8a7.1,7.1,0,0,0,3.82-.75q1.09-.75,1.09-4.85V69.55q0-3-1.05-3.87T574.25,64.76Z" transform="translate(-12.8 -52.83)"/><path class="cls-2" d="M675,54.13l-7.19,62.08H647.67q-2.77-14.31-4.89-32.55-1,7.82-4.5,32.55h-20L611,54.13H626.7l1.71,21.66,1.65,20.94q0.89-16.25,4.46-42.6h16.76q0.33,2.72,1.76,20.48l1.78,23.62q1.38-22.54,4.51-44.1H675Z" transform="translate(-12.8 -52.83)"/><path class="cls-2" d="M678.2,54.13h11.43q11.43,0,15.47.88a10.65,10.65,0,0,1,6.6,4.51q2.55,3.62,2.55,11.56,0,7.25-1.8,9.74t-7.09,3Q710.14,85,711.79,87a9.52,9.52,0,0,1,2.05,3.66,57.81,57.81,0,0,1,.4,9.18v16.37h-15V95.58q0-5-.79-6.17t-4.12-1.19v28H678.2V54.13Zm16.14,10.62v13.8a7.1,7.1,0,0,0,3.82-.75q1.09-.75,1.09-4.85V69.55q0-3-1.05-3.87T694.34,64.76Z" transform="translate(-12.8 -52.83)"/><path class="cls-2" d="M736.64,54.13v62.08H720.49V54.13h16.14Z" transform="translate(-12.8 -52.83)"/><path class="cls-2" d="M775.63,54.13V66.56H766v49.66H749.9V66.56h-9.55V54.13h35.28Z" transform="translate(-12.8 -52.83)"/><path class="cls-2" d="M811.83,54.13V66.56h-9.59v49.66H786.1V66.56h-9.55V54.13h35.28Z" transform="translate(-12.8 -52.83)"/><path class="cls-2" d="M815.51,54.13h26.92V66.56H831.65V78.33h10.08V90.14H831.65v13.65H843.5v12.42h-28V54.13Z" transform="translate(-12.8 -52.83)"/><path class="cls-2" d="M884.18,54.13v62.08H870L861.64,88v28.22h-13.5V54.13h13.5l9,28v-28h13.5Z" transform="translate(-12.8 -52.83)"/><path class="cls-2" d="M938.71,72.92h-15v-4.6q0-3.22-.57-4.1a2.12,2.12,0,0,0-1.92-.88,2.44,2.44,0,0,0-2.2,1.19,6.9,6.9,0,0,0-.75,3.61,10.22,10.22,0,0,0,.84,4.68q0.8,1.57,4.56,3.8,10.78,6.4,13.58,10.5t2.8,13.23q0,6.63-1.55,9.78t-6,5.27a23.74,23.74,0,0,1-10.35,2.13,23.15,23.15,0,0,1-11.06-2.45,12,12,0,0,1-6-6.25Q903.66,105,903.66,98V94h15v7.55q0,3.49.63,4.49a2.45,2.45,0,0,0,2.24,1,2.63,2.63,0,0,0,2.4-1.27,7.22,7.22,0,0,0,.79-3.76q0-5.48-1.5-7.17t-7.55-5.64a74.18,74.18,0,0,1-8-5.79,13.54,13.54,0,0,1-3.24-5,21.92,21.92,0,0,1-1.28-8.13q0-7.13,1.82-10.43a12.26,12.26,0,0,1,5.89-5.16,23.48,23.48,0,0,1,9.82-1.86,25.57,25.57,0,0,1,10.72,2q4.43,2,5.87,5.12t1.44,10.49v2.45Z" transform="translate(-12.8 -52.83)"/><path class="cls-2" d="M982,116.21v7.52H969.85a19.63,19.63,0,0,1-6.21-.68,4.13,4.13,0,0,1-2.44-2,12.58,12.58,0,0,1-.63-4.82,17.07,17.07,0,0,1-9.43-2.88,12.75,12.75,0,0,1-5.21-6.92q-1.27-4.2-1.27-12.56V74.65A46.88,46.88,0,0,1,945.4,65a15.41,15.41,0,0,1,3.09-6.25,14.54,14.54,0,0,1,6-4.43,21.51,21.51,0,0,1,8.17-1.5,24,24,0,0,1,9.64,1.84,14.48,14.48,0,0,1,9,10.56A48.16,48.16,0,0,1,982,74.3V94.46q0,8.28-.81,11.23a8.56,8.56,0,0,1-3.09,4.7A16.23,16.23,0,0,1,972,113q0.11,2.08.86,2.62t3.55,0.54H982ZM965.86,70.09a19.24,19.24,0,0,0-.48-5.54,1.91,1.91,0,0,0-2-1.21,2.2,2.2,0,0,0-1.94,1q-0.67,1-.67,5.77v29q0,5.41.44,6.67a1.92,1.92,0,0,0,2.05,1.27,2,2,0,0,0,2.11-1.46,30.68,30.68,0,0,0,.46-6.94V70.09Z" transform="translate(-12.8 -52.83)"/><path class="cls-2" d="M1004.16,54.13v49.66H1014v12.42H988V54.13h16.14Z" transform="translate(-12.8 -52.83)"/><path class="cls-3" d="M1506.22,54.13V95.62a72,72,0,0,1-.46,9.91,13.46,13.46,0,0,1-2.72,5.87,14.14,14.14,0,0,1-6,4.56,22.45,22.45,0,0,1-8.72,1.55,24.54,24.54,0,0,1-9.82-1.84,14.78,14.78,0,0,1-6.37-4.79,13.26,13.26,0,0,1-2.49-6.23q-0.38-3.28-.38-13.78V54.13h16.14v46.55a18.36,18.36,0,0,0,.44,5.2,1.73,1.73,0,0,0,1.78,1.13,1.87,1.87,0,0,0,2-1.25,23.19,23.19,0,0,0,.44-5.89V54.13h16.14Z" transform="translate(-12.8 -52.83)"/><path class="cls-3" d="M1546.67,72.92h-15v-4.6q0-3.22-.58-4.1a2.12,2.12,0,0,0-1.92-.88,2.44,2.44,0,0,0-2.21,1.19,6.9,6.9,0,0,0-.75,3.61,10.22,10.22,0,0,0,.84,4.68q0.8,1.57,4.56,3.8,10.78,6.4,13.58,10.5t2.8,13.23q0,6.63-1.55,9.78t-6,5.27a23.74,23.74,0,0,1-10.35,2.13,23.15,23.15,0,0,1-11.06-2.45,12,12,0,0,1-6-6.25q-1.42-3.8-1.42-10.77V94h15v7.55q0,3.49.63,4.49a2.45,2.45,0,0,0,2.24,1,2.63,2.63,0,0,0,2.4-1.27,7.23,7.23,0,0,0,.79-3.76q0-5.48-1.5-7.17t-7.55-5.64a74.23,74.23,0,0,1-8-5.79,13.53,13.53,0,0,1-3.24-5,21.91,21.91,0,0,1-1.29-8.13q0-7.13,1.82-10.43a12.26,12.26,0,0,1,5.89-5.16,23.48,23.48,0,0,1,9.82-1.86,25.58,25.58,0,0,1,10.72,2q4.43,2,5.87,5.12t1.44,10.49v2.45Z" transform="translate(-12.8 -52.83)"/><path class="cls-3" d="M1553.07,54.13H1580V66.56h-10.77V78.33h10.08V90.14h-10.08v13.65h11.85v12.42h-28V54.13Z" transform="translate(-12.8 -52.83)"/><path class="cls-3" d="M1585.7,54.13h11.43q11.43,0,15.47.88a10.65,10.65,0,0,1,6.59,4.51q2.55,3.62,2.55,11.56,0,7.25-1.8,9.74t-7.09,3q4.79,1.19,6.44,3.18a9.52,9.52,0,0,1,2.05,3.66,57.84,57.84,0,0,1,.4,9.18v16.37h-15V95.58q0-5-.79-6.17t-4.12-1.19v28H1585.7V54.13Zm16.14,10.62v13.8a7.11,7.11,0,0,0,3.82-.75q1.09-.75,1.09-4.85V69.55q0-3-1.05-3.87T1601.85,64.76Z" transform="translate(-12.8 -52.83)"/><path class="cls-3" d="M1658,54.13v62.08h-16.14V54.13H1658Z" transform="translate(-12.8 -52.83)"/><path class="cls-3" d="M1700.51,54.13v62.08h-14.15L1678,88v28.22h-13.5V54.13H1678l9,28v-28h13.5Z" transform="translate(-12.8 -52.83)"/><path class="cls-3" d="M1707,54.13h16.26a38.17,38.17,0,0,1,10.14,1,11.33,11.33,0,0,1,5.33,3,10.26,10.26,0,0,1,2.42,4.74,42.4,42.4,0,0,1,.63,8.61v5.41q0,5.94-1.23,8.67a8.4,8.4,0,0,1-4.5,4.18,21.31,21.31,0,0,1-8.57,1.46h-4.33v25H1707V54.13Zm16.14,10.62v15.8c0.46,0,.86,0,1.19,0a3.73,3.73,0,0,0,3.09-1.09q0.86-1.09.86-4.54v-5.1q0-3.18-1-4.14T1723.13,64.76Z" transform="translate(-12.8 -52.83)"/><path class="cls-3" d="M1783.1,54.13V95.62a72,72,0,0,1-.46,9.91,13.46,13.46,0,0,1-2.72,5.87,14.14,14.14,0,0,1-6,4.56,22.45,22.45,0,0,1-8.72,1.55,24.54,24.54,0,0,1-9.82-1.84,14.78,14.78,0,0,1-6.37-4.79,13.26,13.26,0,0,1-2.49-6.23q-0.38-3.28-.38-13.78V54.13h16.14v46.55a18.36,18.36,0,0,0,.44,5.2,1.73,1.73,0,0,0,1.78,1.13,1.87,1.87,0,0,0,2-1.25,23.19,23.19,0,0,0,.44-5.89V54.13h16.14Z" transform="translate(-12.8 -52.83)"/><path class="cls-3" d="M1821.87,54.13V66.56h-9.59v49.66h-16.14V66.56h-9.55V54.13h35.28Z" transform="translate(-12.8 -52.83)"/><path class="cls-3" d="M93.47,328.44c0,10.16-5.34,15.2-11.57,15.2-6,0-11.2-4.82-11.27-14.53s5.27-15.05,11.64-15.05C89,314.05,93.47,319.24,93.47,328.44Zm-17.65.45C75.67,335,78,339.71,82,339.71c4.3,0,6.23-4.6,6.23-11,0-5.86-1.71-10.75-6.23-10.75C78,318,75.82,322.8,75.82,328.88Zm5.64,35,28.33-49.83h4.15L85.61,363.89H81.45Zm43.38-15.5c0,10.16-5.34,15.2-11.49,15.2s-11.2-4.82-11.27-14.46S107.34,334,113.71,334C120.46,334,124.84,339.19,124.84,348.39Zm-17.65.45c-0.07,6.16,2.3,10.83,6.3,10.83,4.3,0,6.23-4.6,6.23-11,0-5.86-1.71-10.75-6.23-10.75C109.41,337.93,107.19,342.75,107.19,348.83Z" transform="translate(-12.8 -52.83)"/><path class="cls-3" d="M140.78,312.27c-1.71,6.23-4.89,14.16-7,17.58l-4.15.52A105,105,0,0,0,134,312.94Z" transform="translate(-12.8 -52.83)"/><path class="cls-3" d="M143.75,372.19a106.66,106.66,0,0,0,4.45-17.72l7.19-.74c-1.78,6.3-5,14.54-7.12,18Zm3.19-39.08a4.37,4.37,0,0,1,4.38-4.67c2.67,0,4.38,1.93,4.38,4.67A4.38,4.38,0,1,1,146.93,333.11Z" transform="translate(-12.8 -52.83)"/><path class="cls-4" d="M185.64,313.09v50h-6.45v-50h6.45Z" transform="translate(-12.8 -52.83)"/><path class="cls-4" d="M196.91,363.07v-50h7l16,25.29a141.51,141.51,0,0,1,9,16.24l0.15-.07c-0.59-6.67-.74-12.75-0.74-20.54V313.09h6.08v50h-6.53L212,337.71A158.59,158.59,0,0,1,202.7,321l-0.22.07c0.37,6.3.52,12.31,0.52,20.62v21.36h-6.08Z" transform="translate(-12.8 -52.83)"/><path class="cls-4" d="M244.82,355.21a22.87,22.87,0,0,0,11.57,3.26c6.6,0,10.46-3.49,10.46-8.53,0-4.67-2.67-7.34-9.42-9.94-8.16-2.89-13.2-7.12-13.2-14.16,0-7.79,6.45-13.57,16.17-13.57a22.71,22.71,0,0,1,11,2.45L269.66,320a19.91,19.91,0,0,0-9.49-2.37c-6.82,0-9.42,4.08-9.42,7.49,0,4.67,3,7,9.94,9.64,8.45,3.26,12.76,7.34,12.76,14.68,0,7.71-5.71,14.39-17.5,14.39-4.82,0-10.09-1.41-12.75-3.19Z" transform="translate(-12.8 -52.83)"/><path class="cls-4" d="M308.15,339.64H288.72v18h21.65v5.41H282.27v-50h27v5.41H288.72V334.3h19.43v5.34Z" transform="translate(-12.8 -52.83)"/><path class="cls-4" d="M318.75,313.76a67.14,67.14,0,0,1,12.38-1c6.9,0,11.35,1.26,14.46,4.08a12.45,12.45,0,0,1,3.93,9.49c0,6.6-4.15,11-9.42,12.75v0.22c3.86,1.33,6.15,4.89,7.34,10.09,1.63,7,2.82,11.79,3.86,13.72h-6.67c-0.82-1.41-1.93-5.71-3.34-11.94-1.48-6.9-4.15-9.49-10-9.71h-6.08v21.65h-6.45V313.76Zm6.45,22.77h6.6c6.9,0,11.27-3.78,11.27-9.49,0-6.45-4.67-9.27-11.49-9.34a26.52,26.52,0,0,0-6.38.59v18.24Z" transform="translate(-12.8 -52.83)"/><path class="cls-4" d="M368.81,318.58h-15.2v-5.49h37v5.49H375.33v44.5h-6.53v-44.5Z" transform="translate(-12.8 -52.83)"/><path class="cls-4" d="M418.35,313.09v50h-6.45v-50h6.45Z" transform="translate(-12.8 -52.83)"/><path class="cls-4" d="M429.62,363.07v-50h7l16,25.29a141.5,141.5,0,0,1,9,16.24l0.15-.07c-0.59-6.67-.74-12.75-0.74-20.54V313.09h6.08v50h-6.53l-15.87-25.36A158.51,158.51,0,0,1,435.4,321l-0.22.07c0.37,6.3.52,12.31,0.52,20.62v21.36h-6.08Z" transform="translate(-12.8 -52.83)"/><path class="cls-4" d="M487.9,318.58H472.7v-5.49h37v5.49H494.43v44.5H487.9v-44.5Z" transform="translate(-12.8 -52.83)"/><path class="cls-4" d="M556,337.56c0,17.21-10.46,26.33-23.21,26.33-13.2,0-22.47-10.23-22.47-25.36,0-15.87,9.86-26.25,23.21-26.25C547.16,312.27,556,322.73,556,337.56Zm-38.78.82c0,10.68,5.78,20.25,15.94,20.25s16-9.42,16-20.76c0-9.94-5.19-20.32-15.94-20.32S517.2,327.4,517.2,338.38Z" transform="translate(-12.8 -52.83)"/><path class="cls-4" d="M578.3,359.21a4.38,4.38,0,0,1,4.45-4.67A4.68,4.68,0,1,1,578.3,359.21Z" transform="translate(-12.8 -52.83)"/><path class="cls-4" d="M593.65,359.21a4.38,4.38,0,0,1,4.45-4.67A4.68,4.68,0,1,1,593.65,359.21Z" transform="translate(-12.8 -52.83)"/><path class="cls-4" d="M609,359.21a4.38,4.38,0,0,1,4.45-4.67A4.68,4.68,0,1,1,609,359.21Z" transform="translate(-12.8 -52.83)"/><path class="cls-4" d="M637.47,372.19a106.66,106.66,0,0,0,4.45-17.72l7.19-.74c-1.78,6.3-5,14.54-7.12,18Zm3.19-39.08a4.37,4.37,0,0,1,4.38-4.67c2.67,0,4.38,1.93,4.38,4.67A4.38,4.38,0,1,1,640.66,333.11Z" transform="translate(-12.8 -52.83)"/><path class="cls-3" d="M672,355.21a22.87,22.87,0,0,0,11.57,3.26c6.6,0,10.46-3.49,10.46-8.53,0-4.67-2.67-7.34-9.42-9.94-8.16-2.89-13.2-7.12-13.2-14.16,0-7.79,6.45-13.57,16.17-13.57a22.71,22.71,0,0,1,11,2.45L696.87,320a19.91,19.91,0,0,0-9.49-2.37c-6.82,0-9.42,4.08-9.42,7.49,0,4.67,3,7,9.94,9.64,8.45,3.26,12.76,7.34,12.76,14.68,0,7.71-5.71,14.39-17.5,14.39-4.82,0-10.09-1.41-12.75-3.19Z" transform="translate(-12.8 -52.83)"/><path class="cls-3" d="M735.36,339.64H715.93v18h21.65v5.41H709.48v-50h27v5.41H715.93V334.3h19.43v5.34Z" transform="translate(-12.8 -52.83)"/><path class="cls-3" d="M746,313.09h6.45v44.57h21.36v5.41H746v-50Z" transform="translate(-12.8 -52.83)"/><path class="cls-3" d="M806.85,339.64H787.42v18h21.65v5.41H781v-50h27v5.41H787.42V334.3h19.43v5.34Z" transform="translate(-12.8 -52.83)"/><path class="cls-3" d="M852.38,361.44c-2.37,1.19-7.12,2.37-13.2,2.37-14.09,0-24.69-8.9-24.69-25.29,0-15.65,10.6-26.25,26.1-26.25,6.23,0,10.16,1.33,11.87,2.22l-1.56,5.27a23.48,23.48,0,0,0-10.09-2.08c-11.72,0-19.5,7.49-19.5,20.62,0,12.24,7,20.1,19.21,20.1A25.82,25.82,0,0,0,851,356.32Z" transform="translate(-12.8 -52.83)"/><path class="cls-3" d="M872,318.58h-15.2v-5.49h37v5.49H878.55v44.5H872v-44.5Z" transform="translate(-12.8 -52.83)"/><path class="cls-3" d="M933.88,314.79l-7,9.27v0.15l11.2-1.48v5l-11.2-1.33v0.15l7.12,8.9-4.67,2.67-4.45-10.38h-0.15l-4.82,10.46-4.23-2.67,7-9v-0.15l-11,1.41v-5l10.9,1.41V324l-7-9,4.52-2.6,4.6,10.31h0.15l4.52-10.38Z" transform="translate(-12.8 -52.83)"/><path class="cls-3" d="M961.61,313.09h26.92v5.41H968.06v16.61H987v5.34H968.06v22.62h-6.45v-50Z" transform="translate(-12.8 -52.83)"/><path class="cls-3" d="M997.72,313.76a67.15,67.15,0,0,1,12.38-1c6.9,0,11.35,1.26,14.46,4.08a12.45,12.45,0,0,1,3.93,9.49c0,6.6-4.15,11-9.42,12.75v0.22c3.86,1.33,6.16,4.89,7.34,10.09,1.63,7,2.82,11.79,3.86,13.72h-6.67c-0.82-1.41-1.93-5.71-3.34-11.94-1.48-6.9-4.15-9.49-10-9.71h-6.08v21.65h-6.45V313.76Zm6.45,22.77h6.6c6.9,0,11.27-3.78,11.27-9.49,0-6.45-4.67-9.27-11.49-9.34a26.52,26.52,0,0,0-6.38.59v18.24Z" transform="translate(-12.8 -52.83)"/><path class="cls-3" d="M1080.56,337.56c0,17.21-10.46,26.33-23.21,26.33-13.2,0-22.47-10.23-22.47-25.36,0-15.87,9.86-26.25,23.21-26.25C1071.73,312.27,1080.56,322.73,1080.56,337.56Zm-38.78.82c0,10.68,5.78,20.25,15.94,20.25s16-9.42,16-20.76c0-9.94-5.19-20.32-15.94-20.32S1041.77,327.4,1041.77,338.38Z" transform="translate(-12.8 -52.83)"/><path class="cls-3" d="M1131.06,341.12c-0.37-7-.82-15.35-0.74-21.58h-0.22c-1.71,5.86-3.78,12.09-6.3,19L1115,362.77h-4.89L1102,339c-2.37-7-4.37-13.5-5.78-19.43h-0.15c-0.15,6.23-.52,14.61-1,22.1l-1.33,21.43h-6.16l3.49-50h8.23l8.53,24.18c2.08,6.16,3.78,11.64,5,16.83h0.22c1.26-5,3-10.53,5.26-16.83l8.9-24.18h8.23l3.11,50h-6.3Z" transform="translate(-12.8 -52.83)"/><path class="cls-3" d="M1189.64,361.74a24,24,0,0,1-10.31,2.08c-10.83,0-17.87-7.34-17.87-18.32s7.56-19.06,19.28-19.06a21.82,21.82,0,0,1,9,1.85l-1.48,5a15.14,15.14,0,0,0-7.56-1.71c-8.23,0-12.68,6.08-12.68,13.57,0,8.31,5.34,13.42,12.46,13.42a18.53,18.53,0,0,0,8-1.78Z" transform="translate(-12.8 -52.83)"/><path class="cls-3" d="M1217.15,363.07l-0.52-4.52h-0.22a13.37,13.37,0,0,1-11,5.34c-7.27,0-11-5.12-11-10.31,0-8.68,7.71-13.42,21.58-13.35v-0.74c0-3-.82-8.31-8.16-8.31a17.88,17.88,0,0,0-9.34,2.67l-1.48-4.3a22.28,22.28,0,0,1,11.79-3.19c11,0,13.64,7.49,13.64,14.68v13.42a50.49,50.49,0,0,0,.59,8.6h-5.93Zm-1-18.32c-7.12-.15-15.2,1.11-15.2,8.08,0,4.23,2.82,6.23,6.16,6.23a8.93,8.93,0,0,0,8.68-6,6.8,6.8,0,0,0,.37-2.08v-6.23Z" transform="translate(-12.8 -52.83)"/><path class="cls-3" d="M1240.59,316.87v10.31h9.34v5h-9.34V351.5c0,4.45,1.26,7,4.89,7a14.51,14.51,0,0,0,3.78-.45l0.3,4.89a16,16,0,0,1-5.78.89,9,9,0,0,1-7-2.74c-1.85-1.93-2.52-5.12-2.52-9.34V332.15h-5.56v-5h5.56v-8.6Z" transform="translate(-12.8 -52.83)"/><path class="cls-3" d="M1256.38,356.4A17.11,17.11,0,0,0,1265,359c4.75,0,7-2.37,7-5.34s-1.85-4.82-6.67-6.6c-6.45-2.3-9.49-5.86-9.49-10.16,0-5.78,4.67-10.53,12.38-10.53a17.92,17.92,0,0,1,8.83,2.22l-1.63,4.75a14,14,0,0,0-7.34-2.08c-3.86,0-6,2.22-6,4.89,0,3,2.15,4.3,6.82,6.08,6.23,2.37,9.42,5.49,9.42,10.83,0,6.3-4.89,10.75-13.42,10.75a20.46,20.46,0,0,1-10.08-2.45Z" transform="translate(-12.8 -52.83)"/><path class="cls-3" d="M1308.07,363.07l-12.68-50h6.82l5.93,25.29c1.48,6.23,2.82,12.46,3.71,17.28H1312c0.82-5,2.37-10.9,4.08-17.35l6.67-25.21h6.75l6.08,25.36c1.41,5.93,2.74,11.87,3.49,17.13h0.15c1-5.49,2.45-11,4-17.28l6.6-25.21h6.6l-14.16,50h-6.75l-6.3-26a150.63,150.63,0,0,1-3.26-16.31h-0.15a156.24,156.24,0,0,1-3.86,16.31l-7.12,26h-6.75Z" transform="translate(-12.8 -52.83)"/><path class="cls-3" d="M1369.1,313.09V334h24.17V313.09h6.53v50h-6.53V339.64H1369.1v23.43h-6.45v-50h6.45Z" transform="translate(-12.8 -52.83)"/><path class="cls-3" d="M1436.88,339.64h-19.43v18h21.65v5.41H1411v-50h27v5.41h-20.54V334.3h19.43v5.34Z" transform="translate(-12.8 -52.83)"/><path class="cls-3" d="M1447.48,313.76a67.15,67.15,0,0,1,12.38-1c6.9,0,11.35,1.26,14.46,4.08a12.45,12.45,0,0,1,3.93,9.49c0,6.6-4.15,11-9.42,12.75v0.22c3.86,1.33,6.16,4.89,7.34,10.09,1.63,7,2.82,11.79,3.86,13.72h-6.67c-0.82-1.41-1.93-5.71-3.34-11.94-1.48-6.9-4.15-9.49-10-9.71h-6.08v21.65h-6.45V313.76Zm6.45,22.77h6.6c6.9,0,11.27-3.78,11.27-9.49,0-6.45-4.67-9.27-11.5-9.34a26.52,26.52,0,0,0-6.38.59v18.24Z" transform="translate(-12.8 -52.83)"/><path class="cls-3" d="M1513.26,339.64h-19.43v18h21.65v5.41h-28.11v-50h27v5.41h-20.54V334.3h19.43v5.34Z" transform="translate(-12.8 -52.83)"/><path class="cls-3" d="M1539.36,336.89c0-3.71-.07-6.75-0.3-9.71h5.78l0.37,5.93h0.15a13.2,13.2,0,0,1,11.87-6.75c5,0,12.68,3,12.68,15.28v21.43h-6.53V342.38c0-5.78-2.15-10.6-8.31-10.6a9.27,9.27,0,0,0-8.75,6.67,9.37,9.37,0,0,0-.45,3v21.58h-6.53V336.89Z" transform="translate(-12.8 -52.83)"/><path class="cls-3" d="M1600.39,363.07l-0.52-4.52h-0.22a13.37,13.37,0,0,1-11,5.34c-7.27,0-11-5.12-11-10.31,0-8.68,7.71-13.42,21.58-13.35v-0.74c0-3-.82-8.31-8.16-8.31a17.88,17.88,0,0,0-9.34,2.67l-1.48-4.3a22.28,22.28,0,0,1,11.79-3.19c11,0,13.64,7.49,13.64,14.68v13.42a50.49,50.49,0,0,0,.59,8.6h-5.93Zm-1-18.32c-7.12-.15-15.2,1.11-15.2,8.08,0,4.23,2.82,6.23,6.16,6.23a8.93,8.93,0,0,0,8.68-6,6.8,6.8,0,0,0,.37-2.08v-6.23Z" transform="translate(-12.8 -52.83)"/><path class="cls-3" d="M1616.26,336.89c0-3.71-.07-6.75-0.3-9.71h5.71L1622,333h0.22a12.37,12.37,0,0,1,11.27-6.6,10.61,10.61,0,0,1,10.16,7.19h0.15a14.78,14.78,0,0,1,4-4.67,12.25,12.25,0,0,1,7.93-2.52c4.75,0,11.79,3.11,11.79,15.57v21.13h-6.38V342.75c0-6.9-2.52-11-7.79-11a8.45,8.45,0,0,0-7.71,5.93,10.75,10.75,0,0,0-.52,3.26v22.17h-6.38V341.57c0-5.71-2.52-9.86-7.49-9.86-4.08,0-7,3.26-8.08,6.53a9,9,0,0,0-.52,3.19v21.65h-6.38V336.89Z" transform="translate(-12.8 -52.83)"/><path class="cls-3" d="M1681.74,346.31c0.15,8.83,5.79,12.46,12.31,12.46a23.6,23.6,0,0,0,9.94-1.85l1.11,4.67a29.07,29.07,0,0,1-11.94,2.22c-11,0-17.65-7.27-17.65-18.09s6.38-19.36,16.83-19.36c11.72,0,14.83,10.31,14.83,16.91a24.58,24.58,0,0,1-.22,3h-25.21Zm19.13-4.67c0.07-4.15-1.71-10.6-9-10.6-6.6,0-9.49,6.08-10,10.6h19.06Z" transform="translate(-12.8 -52.83)"/><path class="cls-3" d="M1731.2,313.09h6.45v44.57H1759v5.41H1731.2v-50Z" transform="translate(-12.8 -52.83)"/><path class="cls-3" d="M1772.66,313.09v50h-6.45v-50h6.45Z" transform="translate(-12.8 -52.83)"/><path class="cls-3" d="M1783.93,313.09h6.45v24.1h0.22c1.33-1.93,2.67-3.71,3.93-5.34l15.28-18.76h8l-18.09,21.21,19.5,28.77h-7.64l-16.46-24.55-4.75,5.49v19.06h-6.45v-50Z" transform="translate(-12.8 -52.83)"/><path class="cls-3" d="M1850,339.64h-19.43v18h21.65v5.41h-28.11v-50h27v5.41h-20.54V334.3H1850v5.34Z" transform="translate(-12.8 -52.83)"/><path class="cls-3" d="M1867.13,330.37c1.71-6.23,4.89-14.24,6.9-17.65l4.15-.44a112,112,0,0,0-4.37,17.35Z" transform="translate(-12.8 -52.83)"/><path class="cls-3" d="M1905,328.44c0,10.16-5.34,15.2-11.57,15.2-6,0-11.2-4.82-11.27-14.53s5.27-15.05,11.64-15.05C1900.5,314.05,1905,319.24,1905,328.44Zm-17.65.45c-0.15,6.16,2.15,10.83,6.23,10.83,4.3,0,6.23-4.6,6.23-11,0-5.86-1.71-10.75-6.23-10.75C1889.45,318,1887.3,322.8,1887.3,328.88Zm5.64,35,28.33-49.83h4.15l-28.33,49.83h-4.15Zm43.38-15.5c0,10.16-5.34,15.2-11.49,15.2s-11.2-4.82-11.27-14.46S1918.82,334,1925.2,334C1931.95,334,1936.32,339.19,1936.32,348.39Zm-17.65.45c-0.07,6.16,2.3,10.83,6.3,10.83,4.3,0,6.23-4.6,6.23-11,0-5.86-1.71-10.75-6.23-10.75C1920.9,337.93,1918.67,342.75,1918.67,348.83Z" transform="translate(-12.8 -52.83)"/><line class="cls-5" x1="1576.32" y1="166.99" x2="1576.32" y2="200.06"/><line class="cls-5" x1="100.68" y1="200.06" x2="1576.32" y2="200.06"/><line class="cls-5" x1="100.68" y1="217.08" x2="100.68" y2="200.06"/><path class="cls-3" d="M113.48,288c3.16-8.52,8.55-19.09,14.27-25.64l-14.27,5.16-14.26-5.16C104.92,268.93,110.32,279.5,113.48,288Z" transform="translate(-12.8 -52.83)"/><path class="cls-4" d="M237.72,407.11v54.34H225.37l0-36.69-4.92,36.69h-8.76l-5.19-35.85,0,35.85H194.12V407.11H212.4q0.81,4.9,1.68,11.55l2,13.82,3.25-25.37h18.39Z" transform="translate(-12.8 -52.83)"/><path class="cls-4" d="M267.82,407.11l8.08,54.34H261.46l-0.76-9.77h-5.05l-0.85,9.77H240.19l7.21-54.34h20.42ZM260.33,442q-1.07-9.23-2.15-22.82Q256,434.83,255.47,442h4.86Z" transform="translate(-12.8 -52.83)"/><path class="cls-4" d="M292.43,407.11v43.47H301v10.88H278.3V407.11h14.13Z" transform="translate(-12.8 -52.83)"/><path class="cls-4" d="M318.58,407.11v54.34H304.45V407.11h14.13Z" transform="translate(-12.8 -52.83)"/><path class="cls-4" d="M357.25,430.77H343.11v-9.45a16.91,16.91,0,0,0-.45-5.14,2,2,0,0,0-2-1,2.09,2.09,0,0,0-2.22,1.24,18.9,18.9,0,0,0-.47,5.37V447a17.61,17.61,0,0,0,.47,5.17,2,2,0,0,0,2.11,1.21,2,2,0,0,0,2.06-1.21,19.77,19.77,0,0,0,.49-5.69v-6.83h14.13v2.12q0,8.44-1.19,12a12.23,12.23,0,0,1-5.27,6.19,18.05,18.05,0,0,1-10.05,2.66,20.83,20.83,0,0,1-10.24-2.25,10.94,10.94,0,0,1-5.34-6.23q-1.31-4-1.31-12V426.27a70.59,70.59,0,0,1,.4-8.81,12.33,12.33,0,0,1,2.4-5.66,13.38,13.38,0,0,1,5.54-4.28,22.66,22.66,0,0,1,18.44.85,11.57,11.57,0,0,1,5.34,6q1.28,3.6,1.28,11.21v5.16Z" transform="translate(-12.8 -52.83)"/><path class="cls-4" d="M376.45,407.11v54.34H362.31V407.11h14.13Z" transform="translate(-12.8 -52.83)"/><path class="cls-4" d="M414.41,438.93q0,8.19-.39,11.6a13,13,0,0,1-7.9,10.56,20,20,0,0,1-8.06,1.51,20.47,20.47,0,0,1-7.84-1.43,13.06,13.06,0,0,1-8.11-10.49,114.72,114.72,0,0,1-.4-11.75v-9.3q0-8.19.39-11.6a13,13,0,0,1,7.9-10.56,20,20,0,0,1,8.06-1.51,20.47,20.47,0,0,1,7.84,1.43A13.06,13.06,0,0,1,414,417.88a114.71,114.71,0,0,1,.4,11.75v9.3Zm-14.13-17.86a16.84,16.84,0,0,0-.42-4.85,1.67,1.67,0,0,0-1.73-1.06,1.93,1.93,0,0,0-1.69.86q-0.59.86-.59,5.05v25.38a25,25,0,0,0,.39,5.84,1.68,1.68,0,0,0,1.8,1.11,1.74,1.74,0,0,0,1.85-1.28,26.89,26.89,0,0,0,.4-6.08v-25Z" transform="translate(-12.8 -52.83)"/><path class="cls-4" d="M451.8,407.11v36.32a63,63,0,0,1-.4,8.68,11.77,11.77,0,0,1-2.38,5.13,12.36,12.36,0,0,1-5.22,4,19.65,19.65,0,0,1-7.64,1.36,21.48,21.48,0,0,1-8.59-1.61,12.93,12.93,0,0,1-5.57-4.2,11.62,11.62,0,0,1-2.18-5.45q-0.34-2.87-.34-12.07V407.11h14.13v40.75a16,16,0,0,0,.39,4.55,1.51,1.51,0,0,0,1.56,1,1.63,1.63,0,0,0,1.73-1.09,20.3,20.3,0,0,0,.39-5.15v-40H451.8Z" transform="translate(-12.8 -52.83)"/><path class="cls-4" d="M487.21,423.55H474.09v-4a7.91,7.91,0,0,0-.5-3.59,1.85,1.85,0,0,0-1.68-.77,2.14,2.14,0,0,0-1.93,1,6,6,0,0,0-.65,3.16,9,9,0,0,0,.74,4.1q0.7,1.38,4,3.32,9.44,5.6,11.89,9.19t2.45,11.58q0,5.81-1.36,8.56a10.65,10.65,0,0,1-5.25,4.62,20.78,20.78,0,0,1-9.06,1.86,20.27,20.27,0,0,1-9.68-2.15,10.53,10.53,0,0,1-5.25-5.47,28,28,0,0,1-1.24-9.43V442h13.12v6.61a8.7,8.7,0,0,0,.55,3.93,2.14,2.14,0,0,0,2,.87,2.3,2.3,0,0,0,2.1-1.11A6.32,6.32,0,0,0,475,449q0-4.8-1.31-6.28a41.76,41.76,0,0,0-6.61-4.93,65,65,0,0,1-7-5.07,11.85,11.85,0,0,1-2.84-4.36,19.19,19.19,0,0,1-1.12-7.12q0-6.24,1.59-9.13a10.73,10.73,0,0,1,5.15-4.51,20.56,20.56,0,0,1,8.59-1.63,22.38,22.38,0,0,1,9.38,1.78q3.88,1.78,5.14,4.48t1.26,9.18v2.15Z" transform="translate(-12.8 -52.83)"/><path class="cls-4" d="M534.87,423.55H521.75v-4a7.91,7.91,0,0,0-.5-3.59,1.85,1.85,0,0,0-1.68-.77,2.14,2.14,0,0,0-1.93,1,6,6,0,0,0-.65,3.16,9,9,0,0,0,.74,4.1q0.7,1.38,4,3.32,9.44,5.6,11.89,9.19T536,447.55q0,5.81-1.36,8.56a10.65,10.65,0,0,1-5.25,4.62,20.78,20.78,0,0,1-9.06,1.86,20.27,20.27,0,0,1-9.68-2.15,10.53,10.53,0,0,1-5.25-5.47,28,28,0,0,1-1.24-9.43V442h13.12v6.61a8.7,8.7,0,0,0,.55,3.93,2.14,2.14,0,0,0,2,.87,2.3,2.3,0,0,0,2.1-1.11,6.32,6.32,0,0,0,.69-3.29q0-4.8-1.31-6.28a41.76,41.76,0,0,0-6.61-4.93,65,65,0,0,1-7-5.07,11.85,11.85,0,0,1-2.84-4.36,19.19,19.19,0,0,1-1.12-7.12q0-6.24,1.59-9.13a10.73,10.73,0,0,1,5.15-4.51A20.56,20.56,0,0,1,519.1,406a22.38,22.38,0,0,1,9.38,1.78q3.88,1.78,5.14,4.48t1.26,9.18v2.15Z" transform="translate(-12.8 -52.83)"/><path class="cls-4" d="M572.8,461.45V468H562.13a17.21,17.21,0,0,1-5.44-.6,3.62,3.62,0,0,1-2.13-1.77,11,11,0,0,1-.55-4.22,14.94,14.94,0,0,1-8.26-2.52,11.16,11.16,0,0,1-4.56-6.06,40.74,40.74,0,0,1-1.11-11V425.06a41,41,0,0,1,.65-8.44,13.48,13.48,0,0,1,2.7-5.47,12.71,12.71,0,0,1,5.27-3.88,18.82,18.82,0,0,1,7.15-1.31,21,21,0,0,1,8.44,1.61,12.67,12.67,0,0,1,7.92,9.25,42.08,42.08,0,0,1,.55,7.94v17.65q0,7.25-.71,9.83a7.49,7.49,0,0,1-2.7,4.11,14.19,14.19,0,0,1-5.32,2.33,3.05,3.05,0,0,0,.76,2.3,6.29,6.29,0,0,0,3.1.47h4.9Zm-14.16-40.38a16.84,16.84,0,0,0-.42-4.85,1.67,1.67,0,0,0-1.73-1.06,1.93,1.93,0,0,0-1.69.86q-0.59.86-.59,5.05v25.38a25,25,0,0,0,.39,5.84,1.68,1.68,0,0,0,1.8,1.11,1.74,1.74,0,0,0,1.85-1.28,26.89,26.89,0,0,0,.4-6.08v-25Z" transform="translate(-12.8 -52.83)"/><path class="cls-4" d="M592.17,407.11v43.47h8.59v10.88H578V407.11h14.13Z" transform="translate(-12.8 -52.83)"/></svg>